<?xml version="1.0" encoding="iso-8859-1"?>
<!-- Generator: Adobe Illustrator 19.0.0, SVG Export Plug-In . SVG Version: 6.00 Build 0)  -->
<svg version="1.1" id="Capa_1" xmlns="http://www.w3.org/2000/svg" xmlns:xlink="http://www.w3.org/1999/xlink" x="0px" y="0px"
	 viewBox="0 0 511.999 511.999" style="enable-background:new 0 0 511.999 511.999;" xml:space="preserve">
<g>
	<g>
		<path d="M478.798,274.028h-34.422c-4.191,0-7.588,3.396-7.588,7.588c0,99.686-81.1,180.787-180.786,180.787
			S75.214,381.302,75.214,281.616c0-4.191-3.396-7.588-7.588-7.588H33.203c-4.191,0-7.588,3.396-7.588,7.588
			c0,61.538,23.965,119.393,67.478,162.905c43.514,43.514,101.368,67.478,162.906,67.478s119.393-23.965,162.906-67.478
			c43.514-43.513,67.478-101.367,67.478-162.905C486.386,277.425,482.989,274.028,478.798,274.028z M256.001,496.825
			c-116.125,0-211.063-92.459-215.078-207.621h19.261c3.997,104.554,90.303,188.374,195.817,188.374s191.819-83.82,195.817-188.374
			h19.261C467.064,404.366,372.125,496.825,256.001,496.825z"/>
	</g>
</g>
<g>
	<g>
		<path d="M256.001,114.285c-15.434,0-27.991,12.556-27.991,27.99s12.557,27.991,27.991,27.991
			c15.434,0,27.991-12.557,27.991-27.991S271.435,114.285,256.001,114.285z M256.001,155.091c-7.067,0-12.816-5.749-12.816-12.816
			s5.749-12.815,12.816-12.815s12.816,5.749,12.816,12.815C268.816,149.341,263.067,155.091,256.001,155.091z"/>
	</g>
</g>
<g>
	<g>
		<path d="M374.009,272.712h-45.775l-17.142-86.039c9.813-12.153,15.707-27.598,15.707-44.399c0-30.842-19.832-57.127-47.407-66.809
			V7.588c0-4.191-3.396-7.588-7.588-7.588H240.2c-4.191,0-7.588,3.396-7.588,7.588v67.878
			c-27.575,9.683-47.407,35.967-47.407,66.809c0,16.567,5.735,31.811,15.304,43.886l-5.285,26.908
			c-0.807,4.111,1.872,8.101,5.983,8.908c0.494,0.097,0.986,0.144,1.47,0.144c3.554,0,6.727-2.508,7.438-6.127l3.367-17.15
			c4.98,3.753,10.476,6.85,16.352,9.196l-37.241,188.529c-9.317-8.159-13.861-20.807-11.358-33.481l24.09-122.699
			c0.807-4.112-1.872-8.101-5.983-8.908c-4.12-0.808-8.101,1.873-8.908,5.983l-6.92,35.248h-45.521
			c-4.191,0-7.588,3.396-7.588,7.588v23.369c0,4.191,3.396,7.588,7.588,7.588h37.953l-9.601,48.9
			c-4.148,20.995,5.262,41.945,23.146,52.896l-2.275,13.456c-0.698,4.132,2.086,8.048,6.218,8.747
			c0.428,0.072,0.854,0.106,1.274,0.106c3.635,0,6.847-2.62,7.473-6.324l3.168-18.739l19.564-99.042h62.176l19.59,99.174
			c0.206,1.044,0.634,2.012,1.228,2.863l2.662,15.743c0.626,3.704,3.838,6.324,7.473,6.324c0.42,0,0.846-0.034,1.274-0.106
			c4.132-0.698,6.916-4.615,6.218-8.747l-2.345-13.872c17.445-11.06,26.564-31.751,22.466-52.492l-9.74-48.886h38.095
			c4.191,0,7.588-3.396,7.588-7.588V280.3C381.597,276.108,378.201,272.712,374.009,272.712z M178.926,296.081h-33.345v-8.194
			h34.954L178.926,296.081z M247.786,15.175h16.43v54.948h-16.43V15.175z M200.378,142.274c0-30.67,24.952-55.622,55.622-55.622
			s55.622,24.952,55.622,55.622c0,30.67-24.952,55.623-55.622,55.623C225.33,197.897,200.378,172.944,200.378,142.274z
			 M279.476,272.712h-46.95l11.968-60.589c3.747,0.616,7.588,0.95,11.507,0.95s7.76-0.335,11.507-0.95L279.476,272.712z
			 M227.91,296.081l1.619-8.194h52.944l1.619,8.194H227.91z M319.409,396.568l-18.644-94.386c-0.005-0.025-0.01-0.051-0.015-0.075
			l-4.6-23.288c-0.006-0.028-0.011-0.057-0.017-0.084l-13.964-70.694c5.712-2.281,11.066-5.272,15.936-8.887l21.121,106.007
			c0.004,0.022,0.009,0.046,0.013,0.068l11.529,57.868C333.27,375.763,328.725,388.409,319.409,396.568z M366.42,296.081h-33.531
			l-1.633-8.194h35.164V296.081z"/>
	</g>
</g>
<g>
	<g>
		<path d="M54.958,137.667H33.203c-4.191,0-7.588,3.396-7.588,7.588s3.397,7.588,7.588,7.588h21.755
			c4.191,0,7.588-3.396,7.588-7.588S59.15,137.667,54.958,137.667z"/>
	</g>
</g>
<g>
	<g>
		<path d="M106.037,137.667H84.282c-4.191,0-7.588,3.396-7.588,7.588s3.396,7.588,7.588,7.588h21.755
			c4.191,0,7.588-3.396,7.588-7.588S110.228,137.667,106.037,137.667z"/>
	</g>
</g>
<g>
	<g>
		<path d="M157.114,137.667h-21.755c-4.191,0-7.588,3.396-7.588,7.588s3.396,7.588,7.588,7.588h21.755
			c4.191,0,7.588-3.396,7.588-7.588S161.305,137.667,157.114,137.667z"/>
	</g>
</g>
<g>
	<g>
		<path d="M372.856,137.667h-21.755c-4.191,0-7.588,3.396-7.588,7.588s3.396,7.588,7.588,7.588h21.755
			c4.191,0,7.588-3.396,7.588-7.588S377.047,137.667,372.856,137.667z"/>
	</g>
</g>
<g>
	<g>
		<path d="M423.934,137.667h-21.755c-4.191,0-7.588,3.396-7.588,7.588s3.397,7.588,7.588,7.588h21.755
			c4.191,0,7.588-3.396,7.588-7.588S428.125,137.667,423.934,137.667z"/>
	</g>
</g>
<g>
	<g>
		<path d="M475.01,137.667h-21.755c-4.191,0-7.588,3.396-7.588,7.588s3.397,7.588,7.588,7.588h21.755
			c4.191,0,7.588-3.396,7.588-7.588S479.202,137.667,475.01,137.667z"/>
	</g>
</g>
<g>
</g>
<g>
</g>
<g>
</g>
<g>
</g>
<g>
</g>
<g>
</g>
<g>
</g>
<g>
</g>
<g>
</g>
<g>
</g>
<g>
</g>
<g>
</g>
<g>
</g>
<g>
</g>
<g>
</g>
</svg>
