<svg version="1.1" xmlns="http://www.w3.org/2000/svg" xmlns:xlink="http://www.w3.org/1999/xlink">
    <symbol id="art-and-design" viewBox="-80 0 496 496" height="70px" width="70px">
        <svg    xmlns="http://www.w3.org/2000/svg"><path d="m336 168c0-92.640625-75.367188-168-168-168s-168 75.359375-168 168c0 64.976562 37.503906 123.96875 96 151.742188v8.257812h-16v16h16v16h-16v16h16v24c0 4.414062 3.574219 8 8 8h8v24c0 4.414062 3.574219 8 8 8h8v16c0 22.054688 17.945312 40 40 40s40-17.945312 40-40v-16h8c4.425781 0 8-3.585938 8-8v-24h8c4.425781 0 8-3.585938 8-8v-24h16v-16h-16v-16h16v-16h-16v-8.257812c58.496094-27.773438 96-86.765626 96-151.742188zm-144 288c0 13.230469-10.769531 24-24 24s-24-10.769531-24-24v-16h48zm16-32h-80v-16h80zm16-32h-112v-16h112zm0-32h-112v-16h112zm-95.351562-198.855469 31.351562-52.257812v36.59375c-9.289062 3.3125-16 12.113281-16 22.527343 0 13.230469 10.769531 24 24 24s24-10.769531 24-24c0-10.414062-6.710938-19.214843-16-22.527343v-36.59375l31.351562 52.257812-13.390624 46.855469h-51.929688zm47.351562 6.855469c0 4.40625-3.585938 8-8 8s-8-3.59375-8-8 3.585938-8 8-8 8 3.59375 8 8zm16 56v16h-48v-16zm0 32v16h-48v-16zm-48 32h48v40h-48zm64 40v-72h32v-16h-32v-16h16v-16h-13.390625l13.085937-45.800781c.601563-2.128907.304688-4.414063-.832031-6.320313l-39.855469-66.421875c34.390626 6.558594 61.054688 35.175781 64.59375 70.535157h-7.601562c-4.425781 0-8 3.582031-8 8v32c0 4.414062 3.574219 8 8 8h32c4.425781 0 8-3.585938 8-8v-32c0-4.417969-3.574219-8-8-8h-8.40625c-2.496094-30.039063-18.824219-56.183594-42.640625-72h43.046875v-16h-192v16h43.046875c-23.816406 15.816406-40.144531 41.960937-42.640625 72h-8.40625c-4.425781 0-8 3.582031-8 8v32c0 4.414062 3.574219 8 8 8h32c4.425781 0 8-3.585938 8-8v-32c0-4.417969-3.574219-8-8-8h-7.59375c3.53125-35.367188 30.195312-63.976563 64.59375-70.535157l-39.855469 66.421875c-1.144531 1.898438-1.441406 4.183594-.832031 6.320313l13.078125 45.800781h-13.390625v16h16v16h-32v16h32v72h-16v-13.398438c0-3.175781-1.878906-6.058593-4.800781-7.328124-55.398438-24.234376-91.199219-78.898438-91.199219-139.273438 0-83.816406 68.183594-152 152-152s152 68.183594 152 152c0 60.375-35.800781 115.039062-91.199219 139.273438-2.914062 1.269531-4.800781 4.152343-4.800781 7.328124v13.398438zm40-152h16v16h-16zm-160 0v16h-16v-16zm0 0"/></svg>
    </symbol>
 
    <symbol id="cloud-computing" viewBox="0 0 64 64">
 
    </symbol>
</svg>